Simulation
nRows=19
nColumns=15
endheader
time  TH_x TH_y TH_z SC_y  SC_z  SC_x  AC_y  AC_z  AC_x  GH_y  GH_z  GH_yy  EL_x  PS_y
5.382082397003745  0.000000  0.000000  0.000000  -37.31623873824523  14.12759715737796  20.506881678017177  54.1673972880508  17.07715665771096  14.954011072267033  1.1216176786001715  58.99866721957559  2.1885953403726393  13.47452560106421  120.000000
5.422247191011236  0.000000  0.000000  0.000000  -37.381312226358645  14.168660043482667  20.69019599410394  54.120398570680045  17.035035670704506  15.010356081214407  1.2091259454635632  58.78233146551239  2.1692815306747315  13.495315208362921  120.000000
5.4624119850187265  0.000000  0.000000  0.000000  -37.351692245518784  14.209925147513353  20.766785888770926  54.03935854080302  16.967249280493363  14.985029744090738  1.381649466464738  58.264471203120635  2.2212184769108303  13.435543636671197  120.000000
5.502576779026217  0.000000  0.000000  0.000000  -37.22271845810006  14.248952279364811  20.733762966710252  53.92377706554617  16.87421419063752  14.874328480989396  1.638045077045266  57.42191451034212  2.332505141795723  13.311554585021323  120.000000
5.542741573033708  0.000000  0.000000  0.000000  -36.992518318478744  14.28152929093902  20.5915712281283  53.773255573832365  16.756801365496134  14.675945286254455  1.9767511494168526  56.23460606396309  2.4869262677889923  13.145859973802631  120.000000
5.582906367041199  0.000000  0.000000  0.000000  -36.66336942856  14.302527669777163  20.344064356262216  53.58760714228398  16.616032198082614  14.388870546362456  2.396843613345229  54.688661890427156  2.666312307110922  12.962915952494225  120.000000
5.623071161048689  0.000000  0.000000  0.000000  -36.242784694935594  14.306737843856093  19.998585050031235  53.36685380593128  16.453052457979158  14.013153597514679  2.8990122802250964  52.77910818093742  2.85301598068809  12.784897333331735  120.000000
5.66323595505618  0.000000  0.000000  0.000000  -35.74382233396813  14.28969680894567  19.56583786987924  53.1114886414289  16.26899197776957  13.550068908208496  3.4869129952318336  50.51181423301198  3.0315284971727796  12.628198907742926  120.000000
5.70340074906367  0.000000  0.000000  0.000000  -35.18376207768647  14.248080202561278  19.059476326621848  52.82330075545901  16.06482019737686  13.002778162835671  4.169100076192142  47.90428280664483  3.1886220455953134  12.502059154186119  120.000000
5.743565543071161  0.000000  0.000000  0.000000  -34.58214857985432  14.179760153905436  18.49538532743784  52.50640261079319  15.84119557646931  12.377370564230935  4.960535216091604  44.98497634861461  3.312148457984899  12.40884821320826  120.000000
5.7837303370786515  0.000000  0.000000  0.000000  -33.9592891606261  14.083920741907606  17.89093253454608  52.167496130436454  15.598508518817704  11.683244348766912  5.8833386757529516  41.79144993936262  3.3890153449152853  12.345214091663335  120.000000
5.823895131086142  0.000000  0.000000  0.000000  -33.33507653210302  13.961199102142748  17.264385883719807  51.81557307835515  15.337316184388149  10.93280784996104  6.968181547300916  38.368151024509785  3.401687423447087  12.304008615911213  120.000000
5.864059925093633  0.000000  0.000000  0.000000  -32.728097700423184  13.81370203760866  16.63439716480734  51.46134290139692  15.058568477683405  10.141183132736435  8.25694266515186  34.764312748897346  3.323195620141407  12.27632825093773  120.000000
5.904224719101124  0.000000  0.000000  0.000000  -32.15508674397572  13.644869114134709  16.01938939023887  51.11630112118946  14.76368268272057  9.325476940108334  9.807373299725413  31.032040898648983  3.1101612332177617  12.253337660210752  120.000000
5.944389513108614  0.000000  0.000000  0.000000  -31.630789583979826  13.459471324569435  15.437097828783786  50.79206963229781  14.45463257752517  8.50389493613055  11.702475558937522  27.22487343924446  2.6915422762967594  12.227537705375845  120.000000
5.984554307116105  0.000000  0.000000  0.000000  -31.16781804729421  13.26351776974653  14.904251868188707  50.49968246070878  14.134084412435943  7.694989200989271  14.069516495741198  23.397156790480906  1.9482720472542194  12.193762965125078  120.000000
6.024719101123596  0.000000  0.000000  0.000000  -30.776609581697628  13.064024009021464  14.436221506155318  50.249052551676236  13.805494770676967  6.916795823642408  17.11863821203905  19.60456583936328  0.6736849489079941  12.149831120383965  120.000000
6.064883895131086  0.000000  0.000000  0.000000  -30.465581006188554  12.868707801354756  14.046510557736182  50.04854464949187  13.472988448464864  6.185840211523346  21.22720701034885  15.906557939459674  -1.5114880545734337  12.096870943047128  120.000000
6.1050486891385765  0.000000  0.000000  0.000000  -30.241412200755402  12.68560424481916  13.745999752931311  49.90474721032564  13.140848871182097  5.516261888433242  27.14195558347874  12.374352942867864  -5.361493066529915  12.039622083823025  120.000000
